<svg xmlns="http://www.w3.org/2000/svg" width="27" height="23" fill="none" viewBox="0 0 27 23"><path fill="#020203" d="M22.9929 17.2755H11.5494C11.3506 17.2755 11.1755 17.1448 11.119 16.9542L7.88564 6.05102H25.7811C26.0766 6.05102 26.2916 6.33168 26.2145 6.61703L23.4264 16.9436C23.3735 17.1394 23.1958 17.2755 22.9929 17.2755Z"/><path stroke="#000" stroke-linecap="round" stroke-linejoin="round" stroke-width="1.347" d="M1 1H6.0526C6.25139 1 6.42652 1.13073 6.48305 1.32133L7.88564 6.05102M7.88564 6.05102L11.119 16.9542C11.1755 17.1448 11.3506 17.2755 11.5494 17.2755H22.9929C23.1958 17.2755 23.3735 17.1394 23.4264 16.9436L26.2145 6.61703C26.2916 6.33168 26.0766 6.05102 25.7811 6.05102H7.88564Z"/><circle cx="14.02" cy="20.643" r="2.357" fill="#000"/><circle cx="20.306" cy="20.643" r="2.357" fill="#000"/></svg>